<svg aria-hidden="true" style="position: absolute; width: 0; height: 0; overflow: hidden;" version="1.1" xmlns="http://www.w3.org/2000/svg" xmlns:xlink="http://www.w3.org/1999/xlink">
<defs>
<symbol id="icon-ntilogo" viewBox="0 0 177 32">
<title>ntilogo</title>
<path d="M41.095 28.968v-3.032h1.609c2.118 0 3.107 0.697 3.107 2.189 0 1.325-0.961 2.189-2.433 2.189-0.773 0-0.936 0.146-0.936 0.842 0 0.618-0.18 0.842-0.674 0.842-0.624 0-0.674-0.225-0.674-3.032zM44.295 28.126c0-0.485-0.26-0.704-0.926-0.78-0.803-0.092-0.926 0.012-0.926 0.78s0.123 0.873 0.926 0.78c0.666-0.077 0.926-0.296 0.926-0.78zM47.379 31.384c-0.41-0.453-0.557-1.257-0.557-3.032 0-2.191 0.063-2.416 0.674-2.416 0.604 0 0.674 0.225 0.674 2.178 0 1.855 0.103 2.233 0.695 2.55 1.175 0.629 1.663-0.128 1.663-2.579 0-1.924 0.070-2.148 0.674-2.148 0.613 0 0.674 0.225 0.674 2.474 0 1.969-0.126 2.588-0.616 3.032-0.85 0.769-3.161 0.735-3.879-0.059zM53.221 28.968v-3.032h1.778c1.064 0 2.078 0.211 2.526 0.524 0.888 0.622 0.989 2.021 0.208 2.884-0.499 0.552-0.485 0.677 0.191 1.627l0.732 1.029h-0.855c-0.559 0-1.113-0.349-1.602-1.011-0.411-0.556-0.946-1.011-1.189-1.011-0.266 0-0.442 0.401-0.442 1.011 0 0.786-0.15 1.011-0.674 1.011-0.624 0-0.674-0.225-0.674-3.032zM56.577 28.478c0.573-0.691 0.144-1.194-1.018-1.194-0.832 0-0.991 0.135-0.991 0.842 0 0.662 0.171 0.842 0.801 0.842 0.44 0 0.984-0.221 1.208-0.491zM59.284 28.968v-3.032h2.358c2.133 0 2.358 0.064 2.358 0.674 0 0.584-0.225 0.674-1.684 0.674-1.273 0-1.684 0.123-1.684 0.505 0 0.374 0.393 0.505 1.516 0.505 1.291 0 1.516 0.1 1.516 0.674s-0.225 0.674-1.516 0.674c-1.291 0-1.516 0.1-1.516 0.674 0 0.584 0.225 0.674 1.684 0.674 1.273 0 1.684 0.123 1.684 0.505 0 0.401-0.487 0.505-2.358 0.505h-2.358zM67.705 28.968v-3.032l1.432 0.005c2.141 0.007 2.851 0.297 3.285 1.344 0.655 1.581-0.543 3.030-2.505 3.030-0.697 0-0.864 0.163-0.864 0.842 0 0.618-0.18 0.842-0.674 0.842-0.624 0-0.674-0.225-0.674-3.032zM70.905 28.126c0-0.485-0.26-0.704-0.926-0.78-0.803-0.092-0.926 0.012-0.926 0.78s0.123 0.873 0.926 0.78c0.666-0.077 0.926-0.296 0.926-0.78zM73.432 28.968v-3.032h2.358c2.133 0 2.358 0.064 2.358 0.674 0 0.584-0.225 0.674-1.684 0.674-1.272 0-1.684 0.123-1.684 0.505 0 0.374 0.393 0.505 1.516 0.505 1.291 0 1.516 0.1 1.516 0.674s-0.225 0.674-1.516 0.674c-1.291 0-1.516 0.1-1.516 0.674 0 0.584 0.225 0.674 1.684 0.674 1.272 0 1.684 0.123 1.684 0.505 0 0.401-0.487 0.505-2.358 0.505h-2.358zM79.158 28.968v-3.032h1.778c2.189 0 3.275 0.668 3.275 2.016 0 0.532-0.238 1.206-0.53 1.497-0.481 0.482-0.463 0.614 0.202 1.456l0.732 0.926-0.774 0.116c-0.542 0.081-1.031-0.197-1.634-0.929-1.089-1.325-1.702-1.336-1.702-0.029 0 0.786-0.15 1.011-0.674 1.011-0.624 0-0.674-0.225-0.674-3.032zM82.491 28.66c0.779-0.494 0.161-1.376-0.965-1.376-0.865 0-1.021 0.129-1.021 0.842 0 0.65 0.173 0.841 0.758 0.837 0.417-0.003 0.969-0.139 1.228-0.303zM85.221 28.968v-3.032h2.358c2.133 0 2.358 0.064 2.358 0.674 0 0.584-0.225 0.674-1.684 0.674s-1.684 0.090-1.684 0.674c0 0.574 0.225 0.674 1.516 0.674 1.123 0 1.516 0.131 1.516 0.505s-0.393 0.505-1.516 0.505c-1.508 0-1.516 0.006-1.516 1.179 0 0.954-0.128 1.179-0.674 1.179-0.624 0-0.674-0.225-0.674-3.032zM92.035 31.775c-0.613-0.247-1.424-1.946-1.424-2.984 0-1.388 1.682-2.856 3.258-2.843 1.407 0.012 2.146 0.433 2.75 1.567 1.18 2.216-0.21 4.505-2.709 4.459-0.796-0.015-1.64-0.104-1.875-0.199zM94.989 30.316c0.82-0.82 0.857-1.597 0.116-2.416-0.787-0.87-2.017-0.776-2.659 0.204-0.597 0.911-0.292 1.901 0.778 2.524 0.824 0.48 1.004 0.448 1.764-0.312zM98.021 28.968v-3.032h1.778c2.189 0 3.275 0.668 3.275 2.016 0 0.532-0.238 1.206-0.53 1.497-0.481 0.482-0.463 0.614 0.202 1.456l0.732 0.926-0.774 0.116c-0.542 0.081-1.031-0.197-1.634-0.929-1.089-1.325-1.702-1.336-1.702-0.029 0 0.786-0.15 1.011-0.674 1.011-0.624 0-0.674-0.225-0.674-3.032zM101.354 28.66c0.779-0.494 0.161-1.376-0.965-1.376-0.865 0-1.021 0.129-1.021 0.842 0 0.65 0.173 0.841 0.758 0.837 0.417-0.003 0.969-0.139 1.228-0.303zM104.421 28.968c0-2.764 0.057-3.032 0.646-3.032 0.375 0 0.952 0.494 1.375 1.179 0.401 0.648 0.78 1.179 0.842 1.179s0.441-0.531 0.842-1.179c0.423-0.684 1-1.179 1.375-1.179 0.589 0 0.646 0.268 0.646 3.032 0 2.807-0.050 3.032-0.674 3.032-0.579 0-0.674-0.225-0.675-1.6l-0.002-1.6-1.557 1.946-1.45-1.946-0.011 1.6c-0.009 1.372-0.107 1.6-0.684 1.6-0.624 0-0.674-0.225-0.674-3.032zM111.249 31.579c2.54-6.533 3.067-6.913 4.67-3.368 1.75 3.869 1.733 3.789 0.81 3.789-0.515 0-0.889-0.246-1.025-0.674-0.159-0.5-0.51-0.674-1.358-0.674-0.8 0-1.253 0.203-1.505 0.674-0.391 0.73-1.869 0.965-1.593 0.253zM114.616 28.603c-0.14-0.534-0.252-0.594-0.469-0.253-0.415 0.655-0.359 0.955 0.178 0.955 0.314 0 0.412-0.236 0.29-0.702zM118.232 28.968c0-2.762 0.057-3.032 0.645-3.032 0.373 0 1.226 0.729 2.021 1.728l1.376 1.728v-1.728c0-1.504 0.088-1.728 0.674-1.728 0.624 0 0.674 0.225 0.674 3.032 0 2.691-0.068 3.032-0.604 3.032-0.333 0-1.203-0.786-1.937-1.751l-1.332-1.751-0.102 1.751c-0.086 1.476-0.205 1.751-0.758 1.751-0.602 0-0.656-0.252-0.656-3.032zM125.92 31.65c-0.756-0.441-1.371-2.403-1.097-3.495 0.473-1.886 3.441-2.916 5.037-1.749 0.525 0.384 0.565 0.56 0.22 0.976-0.342 0.412-0.61 0.436-1.427 0.128-1.315-0.496-2.134 0.003-2.272 1.388-0.143 1.431 1.108 2.311 2.43 1.709 0.702-0.32 0.981-0.318 1.305 0.011 0.995 1.009-2.684 1.915-4.194 1.033zM131.368 28.968v-3.032h2.189c1.965 0 2.189 0.069 2.189 0.674 0 0.574-0.225 0.674-1.516 0.674-1.123 0-1.516 0.131-1.516 0.505 0 0.365 0.374 0.505 1.347 0.505 1.123 0 1.347 0.112 1.347 0.674s-0.225 0.674-1.347 0.674c-1.123 0-1.347 0.112-1.347 0.674 0 0.584 0.225 0.674 1.684 0.674 1.273 0 1.684 0.123 1.684 0.505 0 0.401-0.487 0.505-2.358 0.505h-2.358zM168.926 23.055c-12.095-1.797-27.298-3.276-43.284-4.21-9.992-0.584-42.562-0.791-55.242-0.351-17.036 0.591-33.003 1.592-49.179 3.082-7.993 0.737-18.805 1.912-20.379 2.215-0.659 0.127-0.893 0.081-0.674-0.134 0.185-0.181 1.739-0.594 3.453-0.919l3.116-0.591v-21.474h4.638l9.677 12.583 0.183-12.583h4.701v18.601l1.095-0.192c0.602-0.106 2.070-0.297 3.261-0.425l2.166-0.232-0.847-0.707c-1.531-1.279-2.616-3.071-3.171-5.236-0.937-3.656 0.108-7.347 2.775-9.805 2.227-2.053 3.828-2.661 7.015-2.666 3.185-0.005 5.316 0.827 7.321 2.859 2.061 2.088 2.785 3.932 2.785 7.098 0 2.409-0.126 2.968-1.085 4.828l-1.085 2.103 3.779-0.238c2.079-0.131 3.824-0.276 3.879-0.323s-1.287-3.249-2.981-7.116c-1.694-3.867-3.213-7.372-3.375-7.789-0.292-0.749-0.262-0.758 2.495-0.758h2.79l2.656 6.559c1.461 3.608 2.728 6.487 2.817 6.399s1.317-3.002 2.73-6.475l2.57-6.314 2.804-0.099c2.189-0.077 2.764-0.003 2.623 0.337-0.099 0.239-1.569 3.595-3.266 7.456s-3.016 7.090-2.932 7.175c0.085 0.085 0.891 0.055 1.793-0.066l1.639-0.22 6.353-14.751h6.172l6.002 14.137 13.305 0.011v-9.432h-6.4v-4.716h17.853v4.716h-6.4v9.768h8.421v-14.484h16.168v4.042h-11.116v2.695h9.768v4.042h-9.768v3.032h11.453v0.803c0 0.899 0.709 1.206 2.796 1.214l1.28 0.005-0.849-1.113c-1.842-2.415-2.365-5.415-1.472-8.448 0.579-1.967 3.634-4.968 5.824-5.721 3.906-1.343 8.705-0.998 11.959 0.861l1.776 1.014-3.293 3.287-1.984-1.003c-2.238-1.132-3.96-1.273-5.858-0.48-3.851 1.609-4.838 5.758-2.017 8.479 2.196 2.118 5.087 2.391 8.166 0.771l1.912-1.006 1.49 1.246c0.82 0.685 1.49 1.369 1.49 1.519s-0.684 0.707-1.521 1.238l-1.521 0.965 1.1 0.19c0.605 0.104 1.82 0.291 2.7 0.414l1.6 0.224v-18.266h4.716v8.421h8.421v-8.421h5.053v21.498l3.057 0.704c1.681 0.387 3.273 0.704 3.537 0.704s0.48 0.152 0.48 0.337c0 0.185-0.114 0.315-0.253 0.289s-3.587-0.544-7.663-1.149zM16.758 20.515c1.714-0.239 3.111-0.519 3.106-0.622-0.008-0.151-7.437-9.914-7.939-10.434-0.075-0.077-0.136 2.556-0.136 5.853v5.993l0.926-0.178c0.509-0.098 2.328-0.373 4.042-0.612zM164.716 17.516v-3.705h-8.447l0.195 5.866 3.874 0.731c2.131 0.402 3.987 0.75 4.126 0.772s0.253-1.626 0.253-3.664zM38.219 14.446c0.178-0.001 0.504 0.575 0.723 1.281l0.398 1.283 0.047-1.684c0.045-1.638 0.062-1.665 0.625-0.992 0.318 0.381 0.835 1.063 1.148 1.516 0.481 0.694 0.468 0.546-0.083-0.945-0.359-0.973-0.537-1.768-0.394-1.768s0.862 0.489 1.599 1.087c1.272 1.032 1.163 0.669-0.302-1.002-0.894-1.020-0.573-1.213 0.953-0.575 1.708 0.714 1.86 0.412 0.286-0.566l-1.281-0.796 3.693-0.337-1.639-0.432c-1.798-0.474-1.783-0.72 0.079-1.301l1.236-0.386-1.684-0.047c-1.638-0.045-1.665-0.062-0.992-0.625 0.381-0.318 1.063-0.835 1.516-1.148 0.694-0.481 0.546-0.468-0.945 0.083-0.973 0.359-1.768 0.556-1.768 0.436s0.568-0.914 1.263-1.767l1.263-1.55-1.55 1.263c-0.853 0.695-1.648 1.263-1.767 1.263s0.077-0.796 0.436-1.768c0.55-1.49 0.563-1.639 0.083-0.945-0.314 0.453-0.83 1.135-1.148 1.516-0.562 0.673-0.58 0.646-0.625-0.992l-0.047-1.684-0.386 1.236c-0.581 1.862-0.828 1.877-1.301 0.079l-0.432-1.639-0.337 3.693-0.926-1.341c-1.043-1.51-1.164-1.396-0.417 0.393 0.28 0.671 0.436 1.294 0.345 1.384s-0.888-0.426-1.773-1.146l-1.609-1.311 1.263 1.55c0.695 0.853 1.263 1.648 1.263 1.767s-0.796-0.077-1.768-0.436c-1.49-0.55-1.639-0.563-0.945-0.083 0.453 0.314 1.135 0.83 1.516 1.148 0.673 0.562 0.645 0.58-0.992 0.625l-1.684 0.047 1.236 0.386c1.862 0.581 1.877 0.828 0.079 1.301l-1.639 0.432 3.693 0.337-1.281 0.796c-1.574 0.979-1.422 1.28 0.286 0.566 1.526-0.638 1.846-0.444 0.953 0.575-1.505 1.718-1.586 2.048-0.246 1.003 0.768-0.599 1.487-1.088 1.599-1.088s-0.091 0.796-0.45 1.768c-0.55 1.49-0.563 1.639-0.083 0.945 0.314-0.453 0.83-1.135 1.148-1.516 0.561-0.671 0.58-0.636 0.623 1.161l0.044 1.853 0.388-1.45c0.213-0.797 0.534-1.451 0.712-1.452zM79.444 13.811l-0.352-1.011h-3.281c-3.189 0-3.292 0.024-3.672 0.858-0.215 0.472-0.391 0.927-0.391 1.011s1.811 0.153 4.025 0.153h4.025zM77.185 8.505c-0.172-0.324-0.57-1.196-0.884-1.937l-0.572-1.347-0.812 1.812c-0.447 0.996-0.812 1.868-0.812 1.937s0.763 0.125 1.696 0.125c1.51 0 1.662-0.065 1.384-0.589zM85.895 9.937v-1.853h7.411v3.705h-7.411z"></path>
</symbol>
</defs>
</svg>
